<svg xmlns="http://www.w3.org/2000/svg" width="24.962" height="16.64" viewBox="0 0 24.962 16.64">
  <path id="water-solid" d="M24.364,77.912a5.006,5.006,0,0,1-2.51-.993,1.681,1.681,0,0,0-2.089,0,5.43,5.43,0,0,1-6.315-.065,1.609,1.609,0,0,0-2.024.078,5.432,5.432,0,0,1-6.294-.074,1.634,1.634,0,0,0-2.042.087,4.914,4.914,0,0,1-2.5.971A.673.673,0,0,0,0,78.6v1.4a.684.684,0,0,0,.724.694,7.79,7.79,0,0,0,3.442-1.123,8.311,8.311,0,0,0,8.322,0,8.311,8.311,0,0,0,8.322,0,8.013,8.013,0,0,0,3.429,1.118.684.684,0,0,0,.724-.693v-1.37A.7.7,0,0,0,24.364,77.912Zm0-6.242a5.006,5.006,0,0,1-2.51-.993,1.681,1.681,0,0,0-2.089,0,5.43,5.43,0,0,1-6.315-.065,1.609,1.609,0,0,0-2.024.078,5.432,5.432,0,0,1-6.294-.074A1.634,1.634,0,0,0,3.09,70.7a4.915,4.915,0,0,1-2.5.971A.673.673,0,0,0,0,72.355v1.4a.684.684,0,0,0,.724.694,7.79,7.79,0,0,0,3.442-1.123,8.311,8.311,0,0,0,8.322,0,8.311,8.311,0,0,0,8.322,0,8.013,8.013,0,0,0,3.429,1.118.684.684,0,0,0,.724-.694v-1.37a.7.7,0,0,0-.6-.707Zm0-6.242a5.046,5.046,0,0,1-2.51-.993,1.681,1.681,0,0,0-2.089,0,5.43,5.43,0,0,1-6.315-.065,1.609,1.609,0,0,0-2.024.078,5.432,5.432,0,0,1-6.294-.074,1.634,1.634,0,0,0-2.042.087,4.915,4.915,0,0,1-2.5.971.673.673,0,0,0-.589.68v1.4a.684.684,0,0,0,.724.694A7.79,7.79,0,0,0,4.165,67.08a8.311,8.311,0,0,0,8.322,0,8.311,8.311,0,0,0,8.322,0A8.013,8.013,0,0,0,24.238,68.2a.684.684,0,0,0,.724-.694v-1.37A.7.7,0,0,0,24.364,65.429Z" transform="translate(0 -64.048)" fill="#4723d9"/>
</svg>
