<svg xmlns="http://www.w3.org/2000/svg" width="17.16" height="34.32" viewBox="0 0 17.16 34.32">
  <path id="thermometer-quarter-solid" d="M12.87,25.74a4.29,4.29,0,1,1-6.435-3.715v-2.72a2.145,2.145,0,0,1,4.29,0v2.72A4.287,4.287,0,0,1,12.87,25.74Zm2.145-5.674A8.58,8.58,0,0,1,8.58,34.32H8.519A8.58,8.58,0,0,1,2.145,20.066V6.435a6.435,6.435,0,0,1,12.87,0ZM13.943,25.74A6.226,6.226,0,0,0,11.8,21.282V6.435a3.218,3.218,0,0,0-6.435,0V21.282a6.239,6.239,0,0,0-2.145,4.429A5.384,5.384,0,0,0,8.542,31.1H8.58A5.369,5.369,0,0,0,13.943,25.74Z" transform="translate(0)" fill="#4723d9"/>
</svg>
