<svg xmlns="http://www.w3.org/2000/svg" width="69.13" height="68.06" viewBox="0 0 69.13 68.06">
  <g id="_021-rain-2" data-name="021-rain-2" transform="translate(0 -3.716)">
    <path id="Trazado_15591" data-name="Trazado 15591" d="M61.383,23.17H55.241a21.47,21.47,0,0,0,.181-2.179c.018-5.052-4.084-9.758-10.086-10.845a16.105,16.105,0,0,0-9.388.891A20.729,20.729,0,0,0,20.93,3.9a21.789,21.789,0,0,0-2.456-.181C8.271,3.715,0,10.713,0,19.363A14.611,14.611,0,0,0,5.854,30.772a20.6,20.6,0,0,0,12.819,5.08l42.71.171c4.279,0,7.747-2.639,7.747-6.426S65.661,23.17,61.383,23.17Z" transform="translate(0 0)" fill="#77b9c8"/>
    <path id="Trazado_15592" data-name="Trazado 15592" d="M71.5,167H65.942c.1-.947.162-.944.163-1.444.017-4.463-3.692-8.379-9.118-9.34a14.866,14.866,0,0,0-8.488.907,18.866,18.866,0,0,0-13.577-6.247,20.155,20.155,0,0,0-2.221-.13c-9.224,0-16.7,6.2-16.7,13.837a12.827,12.827,0,0,0,5.292,10.085,18.865,18.865,0,0,0,11.59,4.491l38.614.153c3.868,0,7-2.81,7-6.156S75.364,167,71.5,167Z" transform="translate(-14.106 -121.925)" fill="#92c7d3"/>
    <path id="SVGCleanerId_0" d="M122.941,419.419a.947.947,0,0,1-.819-1.421l3.315-5.742a.947.947,0,1,1,1.64.947l-3.315,5.742A.946.946,0,0,1,122.941,419.419Z" transform="translate(-104.109 -347.643)" fill="#92c7d3"/>
    <path id="SVGCleanerId_1" d="M170.941,419.419a.947.947,0,0,1-.819-1.421l3.315-5.742a.947.947,0,1,1,1.64.947l-3.315,5.742A.946.946,0,0,1,170.941,419.419Z" transform="translate(-145.072 -347.643)" fill="#92c7d3"/>
    <path id="SVGCleanerId_2" d="M26.941,419.419A.947.947,0,0,1,26.122,418l3.315-5.742a.947.947,0,1,1,1.64.947l-3.315,5.742A.946.946,0,0,1,26.941,419.419Z" transform="translate(-22.917 -347.643)" fill="#92c7d3"/>
    <path id="SVGCleanerId_3" d="M74.941,419.419A.947.947,0,0,1,74.122,418l3.315-5.742a.947.947,0,1,1,1.64.947l-3.315,5.742A.946.946,0,0,1,74.941,419.419Z" transform="translate(-63.146 -347.643)" fill="#92c7d3"/>
    <path id="SVGCleanerId_4" d="M218.941,419.419a.947.947,0,0,1-.819-1.421l3.315-5.742a.947.947,0,1,1,1.64.947l-3.315,5.742A.946.946,0,0,1,218.941,419.419Z" transform="translate(-186.035 -347.643)" fill="#92c7d3"/>
    <path id="SVGCleanerId_5" d="M266.941,419.419a.947.947,0,0,1-.819-1.421l3.315-5.742a.947.947,0,1,1,1.64.947l-3.315,5.742A.946.946,0,0,1,266.941,419.419Z" transform="translate(-226.998 -347.643)" fill="#92c7d3"/>
    <path id="SVGCleanerId_6" d="M314.941,419.419a.947.947,0,0,1-.819-1.421l3.315-5.742a.947.947,0,0,1,1.641.947l-3.315,5.742A.946.946,0,0,1,314.941,419.419Z" transform="translate(-267.96 -347.643)" fill="#92c7d3"/>
    <path id="SVGCleanerId_7" d="M362.941,419.419a.947.947,0,0,1-.819-1.421l3.315-5.742a.947.947,0,1,1,1.64.947l-3.315,5.742A.946.946,0,0,1,362.941,419.419Z" transform="translate(-308.923 -347.643)" fill="#92c7d3"/>
    <path id="SVGCleanerId_8" d="M410.941,419.419a.947.947,0,0,1-.819-1.421l3.315-5.742a.947.947,0,0,1,1.641.947l-3.315,5.742A.946.946,0,0,1,410.941,419.419Z" transform="translate(-349.153 -347.643)" fill="#92c7d3"/>
    <g id="Grupo_5147" data-name="Grupo 5147" transform="translate(17.885 64.139)">
      <path id="SVGCleanerId_0_1_" d="M122.941,419.419a.947.947,0,0,1-.819-1.421l3.315-5.742a.947.947,0,1,1,1.64.947l-3.315,5.742A.946.946,0,0,1,122.941,419.419Z" transform="translate(-121.995 -411.783)" fill="#92c7d3"/>
    </g>
    <g id="Grupo_5148" data-name="Grupo 5148" transform="translate(24.923 64.139)">
      <path id="SVGCleanerId_1_1_" d="M170.941,419.419a.947.947,0,0,1-.819-1.421l3.315-5.742a.947.947,0,1,1,1.64.947l-3.315,5.742A.946.946,0,0,1,170.941,419.419Z" transform="translate(-169.995 -411.783)" fill="#92c7d3"/>
    </g>
    <g id="Grupo_5149" data-name="Grupo 5149" transform="translate(3.078 64.139)">
      <path id="SVGCleanerId_2_1_" d="M26.941,419.419A.947.947,0,0,1,26.122,418l3.315-5.742a.947.947,0,1,1,1.64.947l-3.315,5.742A.946.946,0,0,1,26.941,419.419Z" transform="translate(-25.995 -411.783)" fill="#92c7d3"/>
    </g>
    <g id="Grupo_5150" data-name="Grupo 5150" transform="translate(10.848 64.139)">
      <path id="SVGCleanerId_3_1_" d="M74.941,419.419A.947.947,0,0,1,74.122,418l3.315-5.742a.947.947,0,1,1,1.64.947l-3.315,5.742A.946.946,0,0,1,74.941,419.419Z" transform="translate(-73.995 -411.783)" fill="#92c7d3"/>
    </g>
    <g id="Grupo_5151" data-name="Grupo 5151" transform="translate(31.96 64.139)">
      <path id="SVGCleanerId_4_1_" d="M218.941,419.419a.947.947,0,0,1-.819-1.421l3.315-5.742a.947.947,0,1,1,1.64.947l-3.315,5.742A.946.946,0,0,1,218.941,419.419Z" transform="translate(-217.995 -411.783)" fill="#92c7d3"/>
    </g>
    <g id="Grupo_5152" data-name="Grupo 5152" transform="translate(38.997 64.139)">
      <path id="SVGCleanerId_5_1_" d="M266.941,419.419a.947.947,0,0,1-.819-1.421l3.315-5.742a.947.947,0,1,1,1.64.947l-3.315,5.742A.946.946,0,0,1,266.941,419.419Z" transform="translate(-265.995 -411.783)" fill="#92c7d3"/>
    </g>
    <g id="Grupo_5153" data-name="Grupo 5153" transform="translate(46.034 64.139)">
      <path id="SVGCleanerId_6_1_" d="M314.941,419.419a.947.947,0,0,1-.819-1.421l3.315-5.742a.947.947,0,0,1,1.641.947l-3.315,5.742A.946.946,0,0,1,314.941,419.419Z" transform="translate(-313.995 -411.783)" fill="#92c7d3"/>
    </g>
    <g id="Grupo_5154" data-name="Grupo 5154" transform="translate(53.071 64.139)">
      <path id="SVGCleanerId_7_1_" d="M362.941,419.419a.947.947,0,0,1-.819-1.421l3.315-5.742a.947.947,0,1,1,1.64.947l-3.315,5.742A.946.946,0,0,1,362.941,419.419Z" transform="translate(-361.995 -411.783)" fill="#92c7d3"/>
    </g>
    <g id="Grupo_5155" data-name="Grupo 5155" transform="translate(60.842 64.139)">
      <path id="SVGCleanerId_8_1_" d="M410.941,419.419a.947.947,0,0,1-.819-1.421l3.315-5.742a.947.947,0,0,1,1.641.947l-3.315,5.742A.946.946,0,0,1,410.941,419.419Z" transform="translate(-409.995 -411.783)" fill="#92c7d3"/>
    </g>
  </g>
</svg>
