<svg xmlns="http://www.w3.org/2000/svg" width="69.13" height="68.713" viewBox="0 0 69.13 68.713">
  <g id="_021-cloudy-1" data-name="021-cloudy-1" transform="translate(0 -1.453)">
    <g id="Grupo_5142" data-name="Grupo 5142" transform="translate(23.99 1.453)">
      <ellipse id="Elipse_14" data-name="Elipse 14" cx="19.534" cy="19.168" rx="19.534" ry="19.168" transform="translate(5.544 14.122)" fill="#fcb641"/>
      <path id="Trazado_15567" data-name="Trazado 15567" d="M329.149,10.645A1.149,1.149,0,0,1,328,9.5V2.6a1.149,1.149,0,0,1,2.3,0V9.5A1.149,1.149,0,0,1,329.149,10.645Z" transform="translate(-304.88 -1.453)" fill="#fcb641"/>
      <path id="Trazado_15568" data-name="Trazado 15568" d="M432.507,55.985a1.149,1.149,0,0,1-.812-1.961l4.875-4.875a1.149,1.149,0,0,1,1.625,1.625l-4.875,4.875A1.146,1.146,0,0,1,432.507,55.985Z" transform="translate(-393.393 -42.009)" fill="#fcb641"/>
      <path id="Trazado_15569" data-name="Trazado 15569" d="M173.054,79.656a1.146,1.146,0,0,1-.812-.337l-4.874-4.874a1.149,1.149,0,1,1,1.625-1.625l4.874,4.874a1.149,1.149,0,0,1-.812,1.961Z" transform="translate(-167.03 -62.281)" fill="#fcb641"/>
    </g>
    <path id="Trazado_15570" data-name="Trazado 15570" d="M61.216,228.914H55.091c.107-1.149.178-1.248.18-1.935a12.929,12.929,0,0,0-10.059-12.8,13.449,13.449,0,0,0-9.362,1.258,19.447,19.447,0,0,0-14.977-8.574,17.947,17.947,0,0,0-2.45-.176C8.249,206.685,0,215.2,0,225.69a19.212,19.212,0,0,0,5.838,13.852,18.766,18.766,0,0,0,12.784,6.168l42.594.21c4.268,0,7.726-3.908,7.726-8.5S65.483,228.914,61.216,228.914Z" transform="translate(0 -175.755)" fill="#6ec3ec"/>
  </g>
</svg>
