<svg xmlns="http://www.w3.org/2000/svg" width="15.682" height="34.501" viewBox="0 0 15.682 34.501">
  <path id="bx-ruler" d="M31.168,0H3.332A3.242,3.242,0,0,0,0,3.136v9.409a3.242,3.242,0,0,0,3.332,3.136H31.168A3.242,3.242,0,0,0,34.5,12.546V3.136A3.242,3.242,0,0,0,31.168,0Zm0,12.546H3.332a1.134,1.134,0,0,1-.177-.025c-.011,0-.017,0-.019.013L3.118,3.209a.288.288,0,0,1,.215-.072h2.94v4.7H9.409v-4.7h3.136V9.409h3.136V3.136h3.136v4.7h3.136v-4.7h3.136V9.409h3.136V3.136h2.94c.124,0,.191.044.2.013l.019,9.325A.288.288,0,0,1,31.168,12.546Z" transform="translate(15.682) rotate(90)" fill="#4723d9"/>
</svg>
